/* XPM */
static char *fe20a0a03a1d4a1af6d5de4ca5da215erNrnAf2Gp0h1OL0d[] = {
/* columns rows colors chars-per-pixel */
"32 32 147 2 ",
"   c #000004",
".  c #04050A",
"X  c #07090F",
"o  c #060714",
"O  c #060A12",
"+  c #090C14",
"@  c #0B0D1A",
"#  c #0A1012",
"$  c #0C111C",
"%  c #11141B",
"&  c #1D1D1E",
"*  c #2F2C1E",
"=  c #333A1A",
"-  c #001121",
";  c #0A1521",
":  c #0A1A2B",
">  c #121622",
",  c #131A25",
"<  c #1B1E24",
"1  c #141D2B",
"2  c #191E2E",
"3  c #1D2126",
"4  c #1D232B",
"5  c #122232",
"6  c #1A2031",
"7  c #1D2934",
"8  c #1D2E3B",
"9  c #272624",
"0  c #2F2C22",
"q  c #21262D",
"w  c #23292D",
"e  c #2A2D2E",
"r  c #2D332B",
"t  c #30342F",
"y  c #232732",
"u  c #252A33",
"i  c #292D35",
"p  c #2A2E39",
"a  c #263236",
"s  c #2C3334",
"d  c #273339",
"f  c #2D323C",
"g  c #2E3839",
"h  c #333534",
"j  c #363936",
"k  c #393A36",
"l  c #313439",
"z  c #333B3D",
"x  c #3C3C3B",
"c  c #3D4135",
"v  c #3C413C",
"b  c #464C29",
"n  c #504A26",
"m  c #515127",
"M  c #454833",
"N  c #41433E",
"B  c #494B3E",
"V  c #4D503A",
"C  c #535433",
"Z  c #5D5B36",
"A  c #52553D",
"S  c #5D5B3C",
"D  c #5D613F",
"F  c #67613E",
"G  c #6A643F",
"H  c #2D3B40",
"J  c #313540",
"K  c #343B41",
"L  c #3A3D41",
"P  c #364141",
"I  c #3B4444",
"U  c #3D4849",
"Y  c #444542",
"T  c #454A45",
"R  c #494B46",
"E  c #424549",
"W  c #454D4A",
"Q  c #4C4D4A",
"!  c #504F45",
"~  c #4B5146",
"^  c #4D524C",
"/  c #535446",
"(  c #53544C",
")  c #58574D",
"_  c #5B5A4D",
"`  c #4E5452",
"'  c #545651",
"]  c #585750",
"[  c #545B54",
"{  c #5C5B52",
"}  c #5E5F5B",
"|  c #635E41",
" . c #605F55",
".. c #5C6146",
"X. c #5F604A",
"o. c #5F605D",
"O. c #646445",
"+. c #6A6441",
"@. c #666844",
"#. c #6E6945",
"$. c #696947",
"%. c #6B664A",
"&. c #6A6449",
"*. c #6F6B4D",
"=. c #6E6E49",
"-. c #716C47",
";. c #706A44",
":. c #736D4A",
">. c #6D714B",
",. c #70724B",
"<. c #76704A",
"1. c #77724C",
"2. c #77714B",
"3. c #7A744D",
"4. c #7A754E",
"5. c #7B754E",
"6. c #676452",
"7. c #626256",
"8. c #696E50",
"9. c #6B6957",
"0. c #64635A",
"q. c #65645A",
"w. c #67665C",
"e. c #64645A",
"r. c #6A695D",
"t. c #6A695E",
"y. c #6A6A5F",
"u. c #69695E",
"i. c #7A7553",
"p. c #7C7753",
"a. c #7D7850",
"s. c #74725F",
"d. c #636460",
"f. c #666660",
"g. c #6A6A60",
"h. c #6C6B61",
"j. c #6D6C61",
"k. c #6D6D62",
"l. c #6D6C61",
"z. c #727167",
"x. c #747368",
"c. c #77776C",
"v. c #7A796D",
"b. c #837E55",
"n. c #807B53",
"m. c #8A845B",
"M. c #8F8A61",
/* pixels */
"* 9   * 9 9 9 * 9 9 0 9 9 9     0 . *   w 9 * 9 9 9 O * .   &   ",
"-./ +.G 6.<.q.3.{ h.v.M.z.h.Q 9 C A M C ~ [ ..~ U o.8.U [ W v 0 ",
"%.T Y T Y _ x R  .` f.d. .' J 0 w T i T v U P ~ 5 8 P P 5 P . % ",
"3.N / Y i Y u Y f.^ { E ^ Q 2 . D c T v W P 5 U v v 8 P v 5 5 % ",
"| p Y i e Y N y k R N Y s q 4 . = v v : g U g u 3 a a 5 a g 1   ",
" .Q ( R y x p K i Y q x i Q 3 . ^ g I v P 3 g s g , g 5 g a 3 X ",
"] Y q x x < x J Y N 9 q e L w + ^ o., U 5 7 s 5 , 4 6 P v 1 & 9 ",
"x 4 p u 3 > , @ o + $ + > > #   v - , $ @   + & X $ + O O + + . ",
"  9 . .     + X   . 0 .       *   .   . 9 9 . . X * .   + 9     ",
"g. .) { g.w.Q . b ,.>...~ U V T N ` @.W U v x . 3.m.i.:.) { b.x.",
"q.g.( ' h.] J   ` ^ v I w v v ~ v P P a , c 3 . #.s./ ) k x T J ",
"R p Q J { ' K % ..( P z g 8 d U 8 I 5 v s a < * F T _ T y k i T ",
"h l N Y h 4 u % C g 7 v ; P g g a 8 v : i s $ . S i R l h i x y ",
"l x l x i R <   ` v g d , P 7 d 8 v 1 7 i , +    .Y f R T N e x ",
"q Y q q l y @ . W U : d 4 5 4 v : 5 : g i < @ 9 ( k R E p Y k h ",
", 3 o o @ % @ . v 5 5 $ % @ . @ + X X X + @ . . Q p K y < . X o ",
"  o * *   9 + + . % .           . 9   .   . .   . % + . +       ",
"3.b. .-.r.<. . . .] O.{  .F x . #.X.=.3. .:. .6. .:._ N ) h.T   ",
"n.{ Q ] ( t.k R Y { i E f Q > * +.R t.o.! ) Y E x p N y i ^ 2 + ",
"p.Q  .Q L R x L T Y { Q l Q > . ) ^ c.} p Y p Q x J N Y T i l   ",
"G  .^ ^ x l N J k Y ! e i Y q . n 7.( p i i q p x k N i x R 4 % ",
" .] j.J l E y l p R u Y x Q % % q.] L i Y Y y Y p L i N q T e   ",
") Q Y Q k i h J x , N q N N X + :.Q Y ( R k i R Y u x q l Y o   ",
"R J J 2 > @ @ p % % X > X + $ & R u u u > o 2 1 o > + w y @ <   ",
". 9 % . .   .   .   + + 9       . % .   . . .     X .         . ",
"T  .r.<.h.) Y   Z C Z / ~ O.$.e...m ~ B $.>.N   <.:.<.n.q.] :.! ",
"i E R ( E ( w . Z B r / v k N ~ v v c N B / 4   |  .Y J T Q x k ",
"Q f N J Q p w   Z N T 4 R < v s v 4 T 4 B k #   <.N x p f y Y Y ",
"q R l N q Y e   D ..s s 3 e c j 9 v N v < k s   | i N p 4 N p L ",
"R p u Y y k >   / ~ T 7 g w v 7 4 v v 3 v Y $ . ] ]  .Y N J Q i ",
"p l & y q k %   ~ 4 c U 3 3 4 T c 4 h v Y u . 9 | R ] K Q Q i f ",
"< 3 % @ X @ $ + r h 7 @ . $ $ . .   X & X @ $   Y < p 6 2 o @ > "
};
