/* XPM */
static char *a9d5912ba23b4019aa9d6ee6bdba8d712hw8a4JGvzPvg10k[] = {
/* columns rows colors chars-per-pixel */
"32 32 8 1 ",
"  c None",
". c black",
"X c #161220",
"o c #2B2932",
"O c #504F5C",
"+ c gray59",
"@ c #CBCBA6",
"# c white",
/* pixels */
"        ..   ..          .      ",
"       .@@. .@#...      .+.     ",
"      .#+O. .#+@#@...   .+O.    ",
"     .#+oo.  ..++.@++.. .O+.    ",
"    .#+XooO.   .O+.+.+@..O+O.   ",
"    .@XooO+.   ..O++O.. .O+O.   ",
"   .#+ooooO+. .@@OO++O..OoX+.   ",
"   .@ooOoOOO+. ..++O++O.OoX+.   ",
"  .@+ooOOoOOO+.  ..O+OO.OOX+O.  ",
"  .+XoOOoOOoOO+.. .+O+OoOoX+O.  ",
" .O+XoOoOoOOoOOOO.+@+O+OoOXO+.  ",
" .@+ooOOo.OooO@@@@++++OOOooX+.  ",
" .@+oOOo..O..@#@+++OOO+O..oX+O. ",
" .+XooOO. ..O#++O+O+++OO..OX+O. ",
".O+XoOO.  .O#@++OOOOOO+. .OX+O. ",
".@+X.oO. .O@+++.OO+++O+o..O.+O. ",
".++. .O..OO@++@@@.OOO+oO. ..+O. ",
".@+. .O.+o.++++@..OO+.OoO...+.. ",
".++.  .+oO..o.+.OO+O..OOOO..+...",
".+.  .OooXX++O.OOoOoo.O.O...+...",
".+.  .oo..+@O+O...OoOo........ .",
".@. .Oo. .+OOO...O.OOOo...... ..",
" .  .o...@++OO.....OOOOo....  . ",
"    ..OO.@++O+.OoO.OO.OOO.o..   ",
"   .OXO.+++OO+.oOoX.O..O.O.X..  ",
"  .OXOO.+.+O.+.ooooX.oX.o.XXo.. ",
" .OoOoOO.o..o.XXXXXXXXXXXXXXXo..",
" .@@+@@@+@++@@@++@+++O++OO+O+O..",
" .@OoOoOOooOOOooooOoOooooOooOO..",
" .++++++OO+++O+OOOO+OOOOOOOOOO. ",
" .............................. ",
"                                "
};
