/* XPM */
static char *c3adcc40896344659bf8f07060126fd7JeU8aQa7aYfQsaHe[] = {
/* columns rows colors chars-per-pixel */
"32 32 14 1 ",
"  c None",
". c #5F3D07",
"X c #724A0B",
"o c #79500F",
"O c #875911",
"+ c #B15213",
"@ c #916116",
"# c #A06D1C",
"$ c #D07A14",
"% c #ECB700",
"& c #EFD85A",
"* c #822D8F",
"= c #E06EE7",
"- c #F8EA9D",
/* pixels */
"  $%&&%      &&%%%&      %&&%$  ",
"           &$&++++&$&           ",
"   $%&%   &&$&+%%+&$&&   %&%$   ",
"   $$    &%%$%%%+&%$%%&    $$   ",
"   %%   &%%++%%+&%%++%%&   %%   ",
"   &&  %%%+%$%+&%+%$%+%%%  &&   ",
"   &% %$%+%oo%++++%oo%+%$% %&   ",
"   &%%$$+$ooo&%%%%%ooo$+$$%%&   ",
" =  &%%+$ooO@#OOOO#@Ooo$+%%&  = ",
"===  &%%ooO@#@@OO@@#@Ooo%%&  ===",
"==*   &%%o@#@##@@##@#@o%%&   ==*",
"=**   $%oO####@@@@####Oo%$   =**",
"=**  &$$o####@@@@@@####o$$&  =**",
" =  &%%$O##@#@@@@@@#@##O$%%&  = ",
"     &%%O#@#@@@.X@@@#@#O%%&     ",
"-     &%O@@@@@.X.X@@@@@O%&     -",
"&---& &%O@#@#@X.XX@#@#@O%& &---&",
"$$$$$ &%O##@#@@XX@@#@##O%& $$$$$",
"   $$ &%@#@@@#@@@@#@@@#@%& $$   ",
" %&%$ &%@@#@###@@###@#@@%& $%&% ",
"   $$ &%@#@@@@#@@#@@@@#@%& $$   ",
"   &% &%@@@.X@@@@@@.X@@@%& %&   ",
"   &% &%@@.X.X@@@@.X.X@@%& %&   ",
"  &%  &%@@X.XX@@@@X.XX@@%&  %&  ",
" &%   &%@@@XX@@@@@@XX@@@%&   %& ",
"&%    &%@#@@@@#@@#@@@@#@%&    %&",
"&%    &%@#@@#@#@@#@#@@#@%&    %&",
"%%    &%O#####@@@@#####O%&    %%",
"%&&&&%%%O@@##@@@@@@##@@O%%%&&&&%",
"%%    %%O@##@@#@@#@@##@O%%    %%",
"%%%%%%%%O######@@######O%%%%%%%%",
"%%%%%%%%OO@@@@@@@@@@@@OO%%%%%%%%"
};
