/* XPM */
static char *_ad7bfac2fac40adef37fc7dabc636ccqJXjy8yUzvCIfBLI_3[] = {
/* columns rows colors chars-per-pixel */
"26 30 8 1 ",
"  c None",
". c #222034",
"X c white",
"o c #CBDBFC",
"O c #D77BBA",
"+ c black",
"@ c #3F3F74",
"# c black",
/* pixels */
"        ..........        ",
"     ...XXXXXXXXXX...     ",
"     .XXXXXXXXXXXXXo.     ",
"     .XXXXXXXXXXXXXX.     ",
"     .XXXXXXXXXXXXXX.     ",
"     .XXXXXXXXXXXXXX.     ",
"    .XXXXXXXXXXXXXXXo.    ",
"    .XXXXXXXXXXXXXXXo.    ",
"    .XXXXXXXXXXXXXXXo.    ",
"    .XXXXXXXXXXXXXXXo.    ",
"    .XXXXXXXXXXXXXXXo.    ",
"    .XXX..XXXXXX..XXo.    ",
"    .XOOXXXXXXXXXXOOo.    ",
"   .oXXXXXXX++XXXXXXoo.   ",
"   .oXXXXXXXXXXXXXXXoo.   ",
"   .oXXXXXXXXXXXXXXooo.   ",
"   +oXXXXXXXXXXXXXXooo+   ",
"   +oXXXXXXXXXXXXXXooo+   ",
"   +oXXXXXXXXXXXXXXooo+   ",
"  .ooXXXXXXXXXXXXXXoooo.  ",
" .oooXXX@XXXXXXXXXXooooo. ",
" .ooooX@XXXXXXXXXXoooooo. ",
" .oooo@@XXXXXXX@@Xoooooo. ",
".ooooo@XXXXXXXX@@oooooooo.",
"@@ooo@@XXXXXXX@ @oooooooo@",
" @oo@@ooXXXXXX@  @oooooo@ ",
"  @.@ooooXXXX@   @oooo.@  ",
"    ..oooooX@    @oo..    ",
"     ....oo@     ....     ",
"         ..               "
};
