/* XPM */
static char *_b0c59c245134aa7881ccda6ea5379c3KmQgmwS2K5uZMsHs[] = {
/* columns rows colors chars-per-pixel */
"32 32 13 1 ",
"  c #001000",
". c #001800",
"X c #002000",
"o c #003000",
"O c #004000",
"+ c #100000",
"@ c #180000",
"# c #200000",
"$ c #300000",
"% c #400000",
"& c #600000",
"* c #604800",
"= c #800000",
/* pixels */
"++++X++++%@##@+++++++++@#X@@++@+",
"$@@X@+@%=*+&@#@@$$#@X#@@@X$@++X+",
"%++X+@&#@=%+@@#X#%$$X@#@ @##@+X+",
"$%X#@@#$@o+@@#X@@#%@@.#$ @@%@#$ ",
"@$ ##$$##O@@++.+++$++.$#@#%=+&+ ",
"@$$##X@@@O+++++++++++@+@@$@*=+@+",
"@@@X@+O+O#+X++$+&%+%&++#@&%o++++",
"@#X@$+O@O#+O+%+++=*=@++#$#@O++@+",
"@#X@+$+...o++%++@+O+%+#@$O@@O+@o",
"#.$@+$+@.##++$+++O@+@@X@#$o#OXo@",
"#.$@@+++#$+++@.++O@.+#X#$@@..X#$",
"++##&@=%#@++++O+o++o#@#X@@%+##++",
"$++$@=*@$@@++@o+o+O@@##X@+%+++++",
"+%+##@.%#@+X+++...@@$#@X+%++++++",
"+%@@#o$#&+@X@++###@@X$@.+$+++.++",
"@+%#@O++++@#X@#@@+++O@#$@++++X++",
"++$@O++++#@@X@##@O+O++@#&@+@++.+",
"+++@O++++@#@ $#@@.+.++@@$%@+++..",
"X+@#O@.OX+@@$@@@@+..+#@#=*=%+@+X",
"+O@$o@O+@@@#####@@##+#@&@o@=++++",
"+@o@o.@@@%$#%@@@X@@@@$##o@@@+$@+",
"@@#..$#$%#@@=+&+X+++@@$$O$@#++%+",
"@##..#@%##@%*=+++o+++X@@O##@@@#$",
"@@@##@@%@##%O++++o+++O@O@@$OX@#$",
"++++++++@#&@O++++X+++.+O@#O#$$@@",
"+++X++++X#@++O+++++++..o..@@##@+",
"+++X+++X+@+O+O+O+++@++...@$@@@@+",
"++++X++X+@+O+O+O+++.@+@..@$@@@++",
".++++.+.+@%+..O++++X++%####.+X++",
"O++++..++%@....+++X++%@+@$@.+X++",
"+ ++++@++$#+#.#+++.+@$++##@@..++",
"+ @+@+++@+@@+#++++X++@+@#$@@++++"
};
