/* XPM */
static char *_c8d8678b4014438879d0285220331eaAtd9YjXY4VBGnLgN[] = {
/* columns rows colors chars-per-pixel */
"32 32 16 1 ",
"  c None",
". c black",
"X c #0C0000",
"o c #1C0000",
"O c #3B0000",
"+ c #010139",
"@ c #640000",
"# c #7B6A1B",
"$ c #04037A",
"% c #870100",
"& c #BF0201",
"* c #BD9C3C",
"= c #FEFE1F",
"- c #F1C14A",
"; c #0A08BC",
": c #0E0BDD",
/* pixels */
"                .               ",
"         .     .#.     .        ",
"        .-.   .&-&.   .-.       ",
"         .-...&%*%&...-.        ",
"         .#***%@#@%***#.        ",
"          .###X=#=X###.         ",
"           ...@XXX@...          ",
"          .&&.&%X%.---.         ",
"         .&%@#..XX-;*;-.        ",
"         .&%#.;:..**#**.        ",
"         .%@#.$;;$.#;#..        ",
"        .-@#.&-$$*#.*.;:.       ",
"       .&.*.O%&--&&@.;;:.       ",
"       .&%...O&&%&%@O@;;:.      ",
"      .&@%@..O%&%&%Oo%O$:.      ",
"     ..&@O+..o%%%%%Oo%@$;.      ",
"    .&&-@O+..o%#-#%@OO%O$:.     ",
"    .&%%#.+.O#*-;*##..-#$:.     ",
"    .@%@..+.O&%#-#&%.&&@$:.     ",
"     ..;.+.+O@@&&%@O.&&.$;..    ",
"      .:.+.+%&%@@@&%@...$;...   ",
"      .;.+.+OO@&&%@OOo+.$;:..   ",
"      .;.+.+@&oOo@O&%O+.+;:...  ",
"      .$.+.+@%O%Ooo&%%.++;:...  ",
"      .$+.++@%@%O..%&%O.+$;...  ",
"     .:$+.+++@&%O+.%&%o.+$;...  ",
"     .:.+.+++@&@O+.O%%...$;...  ",
"     .;.+....%%@O+.O%%....;...  ",
"     .$......-#OO+..-#Oo..;...  ",
"      ......@&OO....%&%O..$...  ",
"         ..O%%O......OOo......  ",
"          ........   ........   "
};
