/* XPM */
static char *_48fbe47556540859f9a956f4dec4942UGa03RBgTuVj0P6Q[] = {
/* columns rows colors chars-per-pixel */
"32 32 11 1 ",
"  c #200000",
". c #300000",
"X c #400000",
"o c #600000",
"O c #800000",
"+ c #A00000",
"@ c #C00000",
"# c red",
"$ c #FF4000",
"% c #FF8000",
"& c #FFC000",
/* pixels */
" XoOO#OOXXX X .XXOoO$O+oOXX XOO@",
"XXooXOooOOO.XX XXooO%oOXX  . XoO",
"XO#O.XXO#OXX. XoXOO%+oX . XX XXO",
"O#%O @@oO#O. XoOXX#$OX .XX@OoXOX",
"#@O .oOO..OX Oo@OO$o.XX @XoOO@O+",
"OOX OO%$#OX o@$%#OOO.. Xo@O.#..$",
"XXo@O%..Oo OoO#.OO..XOXoO..#OOOo",
" .XO#OO..OO@@.#ooXXoo+X.@..OOoOX",
".oO..O+o o@XOO$#OOoO@#$.%#OX  X ",
"XO.O+X.. X.XX@OO%O..#O.Oo.Ooo ..",
" +$OoXXoX.  XooOO#O#Oo+XOo.O@XX ",
".O.@OoO+X oO .XooO$@OXX+oO&#OOXX",
"XXO%$$.+OXX@X. XO@O%oX.oXO@$#OoX",
".XX.OOoOooO@OXXOo.O%   .XO#O%.Oo",
"XOO.@oX oO##oooOO@$OoXXOO$%Oo.Oo",
"O+#O@X .o@O%.Oo #OO@O. @#$OoO.#O",
"+@$XX .oXX$#O%O%OO@OXX@OOOXXXo.O",
"#$&O@X.XXO#@O@.O@oX XoOoX.X.X#.O",
".@..OOX.X#.XoOXoXX.XO.X. X.XO.#$",
"o@oO%#.OX.. .X .X X@X.....O#O#$O",
" oOX@O##OOO@OXOX.oO@.O@OO.##O+OX",
"XXX@Xo.O.#.@@O+OoooOO#&%.#+OX .X",
"..  .XO@oOOoOO#%O+$$..O#.OOX.XOX",
" X.. .XOoOoO#%O##O#O@o@$#ooX.#OO",
" . X. . X .$#OoO#$$OOoO%O@.@#@o.",
". .XoXX.OO..OOX   OoXX..#O$#OOX ",
"  X..@+XX@.%Oo.X oX..X@..O.O@XoX",
"XX.XX@OoXO@.$OXOoX  X.XOO#..X.oO",
"oO+OXX@O%## .&%..@OOXXoXO%##O@O#",
"#O.#O.OO.OOO.@OoO%#OOoX XOO%&##@",
"%.$O#Oo%ooOX.@XOo.$@OOOXoXO@O@OO",
"OOoO@#$#oOX. X XXO%#@@.OoX XooOo"
};
