/* XPM */
static char *_d775b14d74a439df050b3ce3e106887r2XArUe5rGNdrwb7[] = {
/* columns rows colors chars-per-pixel */
"32 32 16 1 ",
"  c None",
". c black",
"X c #29042F",
"o c #3C0844",
"O c #4D0D57",
"+ c #591363",
"@ c #691F74",
"# c gray32",
"$ c #B15213",
"% c #D07A14",
"& c #ECB700",
"* c #EFD85A",
"= c #752880",
"- c #822D8F",
"; c #E06EE7",
": c #F8EA9D",
/* pixels */
"  %&**&      **&&&*      &**&%  ",
"           *%*$$$$*%*           ",
"   %&*&   **%*$&&$*%**   &*&%   ",
"   %%    *&&%&&&$*&%&&*    %%   ",
"   &&   *&&$$&&$*&&$$&&*   &&   ",
"   **  &&&$&%&$*&$&%&$&&&  **   ",
"   *& &%&$&..&$$$$&..&$&%& &*   ",
"   *&&%%$%...*&&&&&...%$%%&&*   ",
" ;  *&&$%..............%$&&*  ; ",
";;;  *&&................&&*  ;;;",
";;-   *&&..............&&*   ;;-",
";--   %&................&%   ;--",
";--  *%%................%%*  ;--",
" ;  *&&%................%&&*  ; ",
"     *&&................&&*     ",
":     *&................&*     :",
"*:::* *&................&* *:::*",
"%%%%% *&................&* %%%%%",
"   %% *&................&* %%   ",
" &*&% *&................&* %&*& ",
"   %% *&................&* %%   ",
"   *& *&.......##.......&* &*   ",
"   *& *&.......##.......&* &*   ",
"  *&  *&.......##.......&*  &*  ",
" *&   *&.......XX.......&*   &* ",
"*&    *&......XXXX......&*    &*",
"*&    *&.....oooooo.....&*    &*",
"&&    *&....OOOOOOOO....&*    &&",
"&****&&&...++++++++++...&&&****&",
"&&    &&..@@@@@@@@@@@@..&&    &&",
"&&&&&&&&.==============.&&&&&&&&",
"&&&&&&&&----------------&&&&&&&&"
};
