/* XPM */
static char *f8da8c8c38e44717860312d42b0711bevcgWRnhyAcpMfxGN[] = {
/* columns rows colors chars-per-pixel */
"24 24 10 1 ",
"  c None",
". c #3B4154",
"X c #9B6348",
"o c #CB815E",
"O c #676E84",
"+ c #2297BC",
"@ c #2CC5F6",
"# c #8790AC",
"$ c #FEE481",
"% c white",
/* pixels */
"                        ",
"                        ",
"        ........        ",
"       ..........       ",
"      ...######...      ",
"      ..########..      ",
"    ....########....    ",
"   .....OOOOOOOO.....   ",
"  ...OO.########.OO..   ",
" ....OOOOOOOOOOOOOO..   ",
" ..$$$OOOOOOOOOOOO@..   ",
" ..$$@+@@@@@@@@@@+@..   ",
" ..$.$+@@%..@@..%+@..   ",
" ....$@@@%..@@..%@@..   ",
"  ...$.@@+%oooo%+....   ",
"  ..$..@@XooooooX...    ",
"  ..$.+@@@oo..oo@+...   ",
"  ..$@+@@@oXXXXo@+@...  ",
"  ..@@+@@@oXXXXo@+@@..  ",
"  ..@@.@@@oXXXXo@.@@..  ",
"  .....@@@$XXXX$@.....  ",
"   .....++o..++o.....   ",
"      ..@@@..@@@..      ",
"      ...@@..@@...      "
};
